<?xml version="1.0" standalone="no"?>
<!DOCTYPE svg PUBLIC "-//W3C//DTD SVG 20010904//EN"
 "http://www.w3.org/TR/2001/REC-SVG-20010904/DTD/svg10.dtd">
<svg version="1.0" xmlns="http://www.w3.org/2000/svg"
 width="1000.000000pt" height="1000.000000pt" viewBox="0 0 1000.000000 1000.000000"
 preserveAspectRatio="xMidYMid meet">
<metadata>
Created by potrace 1.14, written by Peter Selinger 2001-2017
</metadata>
<g transform="translate(0.000000,1000.000000) scale(0.100000,-0.100000)"
fill="#000000" stroke="none">
<path d="M4700 9994 c-1107 -77 -2089 -472 -2920 -1172 -160 -136 -466 -442
-602 -602 -654 -776 -1041 -1684 -1155 -2710 -24 -219 -24 -801 0 -1020 114
-1026 501 -1934 1155 -2710 136 -160 442 -466 602 -602 776 -654 1684 -1041
2710 -1155 219 -24 801 -24 1020 0 1026 114 1934 501 2710 1155 160 136 466
442 602 602 585 694 966 1515 1112 2400 50 303 60 438 60 820 0 382 -10 517
-60 820 -146 885 -527 1706 -1112 2400 -136 160 -442 466 -602 602 -772 651
-1691 1044 -2700 1154 -138 15 -690 27 -820 18z"/>
</g>
</svg>
